<svg width="1440" height="509" viewBox="0 0 1440 509" fill="none" xmlns="http://www.w3.org/2000/svg">
<g clip-path="url(#clip0_9787_50974)">
<g opacity="0.61">
<g clip-path="url(#clip1_9787_50974)">
<g style="mix-blend-mode:soft-light">
<path fill-rule="evenodd" clip-rule="evenodd" d="M853.389 -125.658L869.315 -109.733L853.389 -93.8074H825.645V-66.0634L809.727 -50.145L793.808 -66.0634V-93.8074H766.064L750.146 -109.726L766.064 -125.645H793.808V-153.389L809.733 -169.314L825.645 -153.402V-125.658H853.389ZM746.436 -113.424L746.442 -113.43L746.448 -113.424L763.897 -130.873H788.581V-155.557L806.036 -173.011L806.023 -173.024L788.581 -190.466V-215.15H763.897L746.442 -232.605L728.987 -215.15H704.303V-190.466L686.849 -173.012L686.85 -173.011L686.849 -173.011L704.303 -155.557V-130.873H728.987L746.436 -113.424ZM699.076 -192.647L683.145 -176.716L667.227 -192.634V-220.378H639.483L619.861 -240L600.239 -220.378H572.495V-192.647L556.57 -176.721L540.657 -192.634V-220.378H512.913L493.291 -240L473.669 -220.378H445.925V-192.647L429.993 -176.715L414.075 -192.634V-220.378H386.331L366.709 -240L347.087 -220.378H319.343V-192.647L303.418 -176.722L287.506 -192.634V-220.378H259.762L240.139 -240L220.517 -220.378H192.773V-192.647L176.843 -176.716L160.925 -192.634V-220.378H133.181L113.558 -240L93.9362 -220.378H66.1921V-192.647L50.2668 -176.721L34.3543 -192.634V-220.378H6.61029L-13.012 -240L-32.6342 -220.378H-60.3782V-192.647L-80.0004 -173.024L-60.3782 -153.402V-125.658H-32.6342L-16.7089 -109.733L-32.6342 -93.8074H-60.3782V-66.0634L-80.0004 -46.4412L-60.3782 -26.8189V0.925079H-32.6342L-16.7173 16.842L-32.6342 32.759H-60.3782V60.503L-80.0004 80.1252L-60.3782 99.7475V127.491H-32.6342L-16.7075 143.418L-32.6342 159.345H-60.3782V187.089L-80.0004 206.711L-60.3782 226.333V254.077H-32.6342L-16.7172 269.994L-32.6342 285.911H-60.3782V313.655L-80.0004 333.278L-60.3782 352.9V380.644H-32.6342L-16.7075 396.571L-32.6342 412.497H-60.3782V440.241L-80.0004 459.863L-60.3782 479.486V507.23H-32.6342L-16.7172 523.147L-32.6342 539.064H-60.3782V566.808L-80.0004 586.43L-60.3782 606.052V633.796H-32.6342L-16.7094 649.721L-32.6342 665.646H-60.3782V693.39L-80.0004 713.012L-60.3782 732.634V760.378H-32.6342L-13.012 780L6.61029 760.378H34.3543V732.634L50.2733 716.715L66.1921 732.634V760.378H93.9362L113.558 780L133.181 760.378H160.925V732.634L176.849 716.71L192.773 732.634V760.378H220.517L240.139 780L259.762 760.378H287.506V732.634L303.424 716.716L319.343 732.634V760.378H347.087L366.709 780L386.331 760.378H414.075V732.634L430 716.709L445.925 732.634V760.378H473.669L493.291 780L512.913 760.378H540.657V732.634L556.576 716.715L572.495 732.634V760.378H600.239L619.861 780L639.483 760.378H667.227V732.634L683.152 716.71L699.076 732.634V760.378H726.82L746.442 780L766.064 760.378H793.808V732.634L809.727 716.716L825.645 732.634V760.378H853.389L873.011 780L892.634 760.378H920.378V732.634L940 713.012L920.378 693.39V665.646H892.634L876.709 649.721L892.634 633.796H920.378V606.052L940 586.43L920.378 566.808V539.064H892.634L876.717 523.147L892.634 507.23H920.378V479.486L940 459.863L920.378 440.241V412.497H892.634L876.707 396.571L892.634 380.644H920.378V352.9L940 333.278L920.378 313.655V285.911H892.634L876.717 269.994L892.634 254.077H920.378V226.333L940 206.711L920.378 187.089V159.345H892.634L876.707 143.418L892.634 127.491H920.378V99.7475L940 80.1252L920.378 60.503V32.759H892.634L876.717 16.842L892.634 0.925079H920.378V-26.8189L940 -46.4412L920.378 -66.0634V-93.8074H892.634L876.715 -109.726L892.634 -125.645H920.378V-153.389L940 -173.011L920.378 -192.634V-220.378H892.634L873.011 -240L853.389 -220.378H825.645V-192.647L809.72 -176.722L793.808 -192.634V-220.378H766.064L746.442 -240L726.82 -220.378H699.076V-192.647ZM53.9708 713.006L53.9766 713.012L53.9707 713.018L71.4197 730.467V755.151H96.1036L113.558 772.605L131.013 755.151H155.697V730.467L173.152 713.012L155.697 695.557V670.873H131.013L113.558 653.418L96.1036 670.873H71.4197V695.557L53.9708 713.006ZM50.2733 709.309L34.3543 693.39V665.646H6.61029L-9.31451 649.721L6.61029 633.796H34.3543V606.052L50.2733 590.133L66.1921 606.052V633.796H93.9362L109.861 649.721L93.9362 665.646H66.1921V693.39L50.2733 709.309ZM-13.012 646.023L-13.0247 646.036L-30.4794 628.581H-55.1635V603.897L-72.6182 586.443L-55.1635 568.988V544.304H-30.4794L-13.0247 526.849L4.42999 544.304H29.1141V568.988L46.5688 586.443L29.1141 603.897V628.581H4.42999L-13.012 646.023ZM-13.012 519.441L-13.0261 519.456L-30.4794 502.002H-55.1635V477.318L-72.6182 459.863L-55.1635 442.409V417.725H-30.4794L-13.0247 400.27L4.42999 417.725H29.1141V442.409L46.5688 459.863L29.1141 477.318V502.002H4.42999L-13.0105 519.443L-13.012 519.441ZM6.61029 539.064L-9.30664 523.147L6.61029 507.23H34.3543V479.486L50.2733 463.567L66.1921 479.486V507.23H93.9362L109.853 523.147L93.9362 539.064H66.1921V566.808L50.2733 582.727L34.3543 566.808V539.064H6.61029ZM53.9766 586.43L53.9649 586.443L71.4197 603.897V628.581H96.1036L113.552 646.03L113.558 646.023L113.565 646.03L131.013 628.581H155.697V603.897L173.152 586.443L155.697 568.988V544.304H131.013L113.56 526.851L113.558 526.852L113.557 526.851L96.1036 544.304H71.4197V568.988L53.9766 586.43ZM53.9707 459.858L53.9766 459.863L53.9707 459.869L71.4197 477.318V502.002H96.1036L113.551 519.449L113.558 519.441L113.566 519.449L131.013 502.002H155.697V477.318L173.152 459.863L155.697 442.409V417.725H131.013L113.558 400.27L96.1036 417.725H71.4197V442.409L53.9707 459.858ZM50.2733 456.16L34.3543 440.241V412.497H6.61029L-9.31641 396.571L6.61029 380.644H34.3543V352.9L50.2733 336.981L66.1921 352.9V380.644H93.9362L109.863 396.571L93.9362 412.497H66.1921V440.241L50.2733 456.16ZM-13.012 266.289L-13.0261 266.303L-30.4794 248.85H-55.1635V224.166L-72.6182 206.711L-55.1635 189.256V164.572H-30.4794L-13.0247 147.118L4.42999 164.572H29.1141V189.256L46.5688 206.711L29.1141 224.166V248.85H4.42999L-13.0105 266.29L-13.012 266.289ZM6.61029 285.911L-9.30664 269.994L6.61029 254.077H34.3543V226.333L50.2733 210.414L66.1921 226.333V254.077H93.9362L109.853 269.994L93.9362 285.911H66.1921V313.655L50.2733 329.574L34.3543 313.655V285.911H6.61029ZM53.9766 333.278L53.9649 333.29L71.4197 350.745V375.429H96.1036L113.554 392.879L113.558 392.875L113.563 392.879L131.013 375.429H155.697V350.745L173.152 333.29L155.697 315.836V291.152H131.013L113.56 273.698L113.558 273.7L113.557 273.698L96.1036 291.152H71.4197V315.836L53.9766 333.278ZM53.9708 206.705L53.9766 206.711L53.9708 206.717L71.4197 224.166V248.85H96.1036L113.551 266.297L113.558 266.289L113.566 266.297L131.013 248.85H155.697V224.166L173.152 206.711L155.697 189.256V164.572H131.013L113.558 147.118L96.1036 164.572H71.4197V189.256L53.9708 206.705ZM50.2733 203.008L34.3543 187.089V159.345H6.61029L-9.31641 143.418L6.61029 127.491H34.3543V99.7475L50.2733 83.8285L66.1921 99.7475V127.491H93.9362L109.863 143.418L93.9362 159.345H66.1921V187.089L50.2733 203.008ZM-13.012 13.1367L-13.0261 13.1509L-30.4794 -4.30243H-55.1635V-28.9864L-72.6182 -46.4412L-55.1635 -63.8959V-88.5799H-30.4794L-13.0247 -106.035L-13.012 -106.023L4.42999 -88.5799H29.1141V-63.8959L46.5688 -46.4412L29.1141 -28.9864V-4.30243H4.42999L-13.0105 13.1382L-13.012 13.1367ZM6.61029 32.759L-9.30664 16.842L6.61029 0.925079H34.3543V-26.8189L50.2733 -42.7379L66.1921 -26.8189V0.925079H93.9362L109.853 16.842L93.9362 32.759H66.1921V60.503L50.2733 76.4219L34.3543 60.503V32.759H6.61029ZM53.9766 80.1252L53.9649 80.138L71.4197 97.5927V122.277H96.1036L113.554 139.727L113.558 139.723L113.563 139.727L131.013 122.277H155.697V97.5927L173.152 80.138L155.697 62.6832V37.9992H131.013L113.56 20.5459L113.558 20.5473L113.557 20.5459L96.1036 37.9992H71.4197V62.6832L53.9766 80.1252ZM53.9708 -46.447L53.9766 -46.4412L53.9708 -46.4354L71.4197 -28.9864V-4.30243H96.1036L113.551 13.1445L113.558 13.1367L113.566 13.1445L131.013 -4.30243H155.697V-28.9864L173.152 -46.4412L155.697 -63.8959V-88.5799H131.013L113.564 -106.029L113.558 -106.023V-106.035L96.1036 -88.5799H71.4197V-63.8959L53.9708 -46.447ZM50.2733 -50.1445L34.3543 -66.0634V-93.8074H6.61029L-9.30859 -109.726L6.61029 -125.645H34.3543V-153.389L50.2796 -169.315L66.1921 -153.402V-125.658H93.9362L109.861 -109.733L93.9362 -93.8074H66.1921V-66.0634L50.2733 -50.1445ZM-13.012 -113.43L-13.0247 -113.418L-30.4794 -130.873H-55.1635V-155.557L-72.6182 -173.011L-55.1635 -190.466V-215.15H-30.4794L-13.0247 -232.605L4.42999 -215.15H29.1141V-190.466L46.5688 -173.011L29.1141 -155.557V-130.873H4.42999L-13.012 -113.43ZM71.4197 -190.466L53.9708 -173.017L53.9766 -173.011L53.9708 -173.006L71.4197 -155.557V-130.873H96.1036L113.553 -113.424L113.558 -113.43L113.564 -113.424L131.013 -130.873H155.697V-155.557L173.152 -173.011L155.697 -190.466V-215.15H131.013L113.558 -232.605L96.1036 -215.15H71.4197V-190.466ZM176.849 709.314L192.773 693.39V665.646H220.517L236.442 649.721L220.517 633.796H192.773V606.052L176.849 590.128L160.925 606.052V633.796H133.181L117.256 649.721L133.181 665.646H160.925V693.39L176.849 709.314ZM180.547 713.012L198.001 695.557V670.873H222.685L240.139 653.418L257.594 670.873H282.278V695.557L299.727 713.006L299.72 713.012L299.727 713.018L282.278 730.467V755.151H257.594L240.139 772.605L222.685 755.151H198.001V730.467L180.547 713.012ZM240.139 646.023L240.133 646.03L222.685 628.581H198.001V603.897L180.546 586.443L198.001 568.988V544.304H222.685L240.138 526.851L240.139 526.852L240.141 526.851L257.594 544.304H282.278V568.988L299.72 586.43L299.733 586.443L282.278 603.897V628.581H257.594L240.146 646.03L240.139 646.023ZM259.762 665.646L243.837 649.721L259.762 633.796H287.506V606.052L303.424 590.134L319.343 606.052V633.796H347.087L363.011 649.721L347.087 665.646H319.343V693.39L303.424 709.308L287.506 693.39V665.646H259.762ZM324.57 695.557L307.122 713.006L307.128 713.012L307.122 713.018L324.57 730.467V755.151H349.254L366.709 772.605L384.164 755.151H408.848V730.467L426.302 713.012L408.848 695.557V670.873H384.164L366.709 653.418L349.254 670.873H324.57V695.557ZM430 709.314L445.925 693.39V665.646H473.669L489.593 649.721L473.669 633.796H445.925V606.052L430 590.127L414.075 606.052V633.796H386.331L370.406 649.721L386.331 665.646H414.075V693.39L430 709.314ZM366.702 646.03L366.709 646.023L366.715 646.03L384.164 628.581H408.848V603.897L426.302 586.443L408.848 568.988V544.304H384.164L366.71 526.851L366.709 526.852L366.707 526.851L349.254 544.304H324.57V568.988L307.128 586.43L307.115 586.443L324.57 603.897V628.581H349.254L366.702 646.03ZM493.291 646.023L493.284 646.03L475.836 628.581H451.152V603.897L433.697 586.443L451.152 568.988V544.304H475.836L493.289 526.851L493.291 526.852L493.292 526.851L510.746 544.304H535.43V568.988L552.873 586.43L552.884 586.443L535.43 603.897V628.581H510.746L493.297 646.03L493.291 646.023ZM512.913 665.646L496.988 649.721L512.913 633.796H540.657V606.052L556.576 590.133L572.495 606.052V633.796H600.239L616.164 649.721L600.239 665.646H572.495V693.39L556.576 709.309L540.657 693.39V665.646H512.913ZM552.873 713.012L552.878 713.018L535.43 730.467V755.151H510.746L493.291 772.605L475.836 755.151H451.152V730.467L433.697 713.012L451.152 695.557V670.873H475.836L493.291 653.418L510.746 670.873H535.43V695.557L552.878 713.006L552.873 713.012ZM577.722 695.557L560.273 713.006L560.279 713.012L560.273 713.018L577.722 730.467V755.151H602.406L619.861 772.605L637.316 755.151H662V730.467L679.455 713.012L662 695.557V670.873H637.316L619.861 653.418L602.406 670.873H577.722V695.557ZM683.152 709.314L699.076 693.39V665.646H726.82L742.745 649.721L726.82 633.796H699.076V606.052L683.152 590.128L667.227 606.052V633.796H639.483L623.559 649.721L639.483 665.646H667.227V693.39L683.152 709.314ZM619.855 646.03L619.861 646.023L619.867 646.03L637.316 628.581H662V603.897L679.455 586.443L662 568.988V544.304H637.316L619.863 526.851L619.861 526.852L619.86 526.851L602.406 544.304H577.722V568.988L560.279 586.43L560.268 586.443L577.722 603.897V628.581H602.406L619.855 646.03ZM686.85 713.012L704.303 695.557V670.873H728.987L746.442 653.418L763.897 670.873H788.581V695.557L806.029 713.006L806.023 713.012L806.029 713.018L788.581 730.467V755.151H763.897L746.442 772.605L728.987 755.151H704.303V730.467L686.85 713.012ZM746.442 646.023L746.436 646.03L728.987 628.581H704.303V603.897L686.849 586.443L704.303 568.988V544.304H728.987L746.441 526.851L746.442 526.852L746.444 526.851L763.897 544.304H788.581V568.988L806.023 586.43L806.036 586.443L788.581 603.897V628.581H763.897L746.449 646.03L746.442 646.023ZM766.064 665.646L750.14 649.721L766.064 633.796H793.808V606.052L809.727 590.134L825.645 606.052V633.796H853.389L869.314 649.721L853.389 665.646H825.645V693.39L809.727 709.308L793.808 693.39V665.646H766.064ZM830.873 695.557L813.424 713.006L813.431 713.012L813.424 713.018L830.873 730.467V755.151H855.557L873.011 772.605L890.466 755.151H915.15V730.467L932.605 713.012L915.15 695.557V670.873H890.466L873.011 653.418L855.557 670.873H830.873V695.557ZM873.005 646.03L873.011 646.023L873.018 646.03L890.466 628.581H915.15V603.897L932.605 586.443L915.15 568.988V544.304H890.466L873.013 526.851L873.011 526.852L873.01 526.851L855.557 544.304H830.873V568.988L813.431 586.43L813.418 586.443L830.873 603.897V628.581H855.557L873.005 646.03ZM133.181 539.064L117.264 523.147L133.181 507.23H160.925V479.486L176.849 463.561L192.773 479.486V507.23H220.517L236.434 523.147L220.517 539.064H192.773V566.808L176.849 582.732L160.925 566.808V539.064H133.181ZM243.845 523.147L259.762 539.064H287.506V566.808L303.424 582.726L319.343 566.808V539.064H347.087L363.003 523.147L347.087 507.23H319.343V479.486L303.424 463.567L287.506 479.486V507.23H259.762L243.845 523.147ZM240.132 519.449L240.139 519.441L240.147 519.449L257.594 502.002H282.278V477.318L299.727 459.87L299.72 459.863L299.727 459.857L282.278 442.409V417.725H257.594L240.139 400.27L222.685 417.725H198.001V442.409L180.547 459.863L198.001 477.318V502.002H222.685L240.132 519.449ZM133.181 412.497L117.254 396.571L133.181 380.644H160.925V352.9L176.849 336.976L192.773 352.9V380.644H220.517L236.444 396.571L220.517 412.497H192.773V440.241L176.849 456.166L160.925 440.241V412.497H133.181ZM307.122 459.857L307.128 459.863L307.122 459.87L324.57 477.318V502.002H349.254L366.701 519.449L366.709 519.441L366.717 519.449L384.164 502.002H408.848V477.318L426.302 459.863L408.848 442.409V417.725H384.164L366.709 400.27L349.254 417.725H324.57V442.409L307.122 459.857ZM303.424 456.16L319.343 440.241V412.497H347.087L363.013 396.571L347.087 380.644H319.343V352.9L303.424 336.981L287.506 352.9V380.644H259.762L243.835 396.571L259.762 412.497H287.506V440.241L303.424 456.16ZM240.135 392.879L240.139 392.875L240.144 392.879L257.594 375.429H282.278V350.745L299.733 333.29L299.72 333.278L282.278 315.836V291.152H257.594L240.141 273.698L240.139 273.7L240.138 273.698L222.685 291.152H198.001V315.836L180.546 333.29L198.001 350.745V375.429H222.685L240.135 392.879ZM133.181 285.911L117.264 269.994L133.181 254.077H160.925V226.333L176.849 210.409L192.773 226.333V254.077H220.517L236.434 269.994L220.517 285.911H192.773V313.655L176.849 329.58L160.925 313.655V285.911H133.181ZM307.115 333.29L307.128 333.278L324.57 315.836V291.152H349.254L366.707 273.698L366.709 273.7L366.71 273.698L384.164 291.152H408.848V315.836L426.302 333.29L408.848 350.745V375.429H384.164L366.713 392.879L366.709 392.875L366.704 392.879L349.254 375.429H324.57V350.745L307.115 333.29ZM243.845 269.994L259.762 285.911H287.506V313.655L303.424 329.574L319.343 313.655V285.911H347.087L363.003 269.994L347.087 254.077H319.343V226.333L303.424 210.415L287.506 226.333V254.077H259.762L243.845 269.994ZM240.132 266.297L240.139 266.289L240.147 266.297L257.594 248.85H282.278V224.166L299.727 206.717L299.72 206.711L299.727 206.705L282.278 189.256V164.572H257.594L240.139 147.118L222.685 164.572H198.001V189.256L180.547 206.711L198.001 224.166V248.85H222.685L240.132 266.297ZM133.181 159.345L117.254 143.418L133.181 127.491H160.925V99.7475L176.849 83.8232L192.773 99.7475V127.491H220.517L236.444 143.418L220.517 159.345H192.773V187.089L176.849 203.013L160.925 187.089V159.345H133.181ZM307.122 206.705L307.128 206.711L307.122 206.717L324.57 224.166V248.85H349.254L366.701 266.297L366.709 266.289L366.717 266.297L384.164 248.85H408.848V224.166L426.302 206.711L408.848 189.256V164.572H384.164L366.709 147.118L349.254 164.572H324.57V189.256L307.122 206.705ZM303.424 203.007L319.343 187.089V159.345H347.087L363.013 143.418L347.087 127.491H319.343V99.7475L303.424 83.829L287.506 99.7475V127.491H259.762L243.835 143.418L259.762 159.345H287.506V187.089L303.424 203.007ZM240.135 139.727L240.139 139.723L240.144 139.727L257.594 122.277H282.278V97.5927L299.733 80.138L299.72 80.1252L282.278 62.6832V37.9992H257.594L240.141 20.5459L240.139 20.5473L240.138 20.5459L222.685 37.9992H198.001V62.6832L180.546 80.138L198.001 97.5927V122.277H222.685L240.135 139.727ZM386.331 539.064L370.414 523.147L386.331 507.23H414.075V479.486L430 463.561L445.925 479.486V507.23H473.669L489.586 523.147L473.669 539.064H445.925V566.808L430 582.732L414.075 566.808V539.064H386.331ZM496.996 523.147L512.913 539.064H540.657V566.808L556.576 582.727L572.495 566.808V539.064H600.239L616.156 523.147L600.239 507.23H572.495V479.486L556.576 463.567L540.657 479.486V507.23H512.913L496.996 523.147ZM493.283 519.449L493.291 519.441L493.299 519.449L510.746 502.002H535.43V477.318L552.878 459.869L552.873 459.863L552.878 459.858L535.43 442.409V417.725H510.746L493.291 400.27L475.836 417.725H451.152V442.409L433.697 459.863L451.152 477.318V502.002H475.836L493.283 519.449ZM619.861 519.441L619.853 519.449L602.406 502.002H577.722V477.318L560.273 459.869L560.279 459.863L560.273 459.858L577.722 442.409V417.725H602.406L619.861 400.27L637.316 417.725H662V442.409L679.455 459.863L662 477.318V502.002H637.316L619.869 519.449L619.861 519.441ZM639.483 539.064L623.566 523.147L639.483 507.23H667.227V479.486L683.152 463.561L699.076 479.486V507.23H726.82L742.737 523.147L726.82 539.064H699.076V566.808L683.152 582.732L667.227 566.808V539.064H639.483ZM430 456.166L445.925 440.241V412.497H473.669L489.595 396.571L473.669 380.644H445.925V352.9L430 336.975L414.075 352.9V380.644H386.331L370.404 396.571L386.331 412.497H414.075V440.241L430 456.166ZM493.291 392.875L493.286 392.879L475.836 375.429H451.152V350.745L433.697 333.29L451.152 315.836V291.152H475.836L493.289 273.698L493.291 273.7L493.292 273.698L510.746 291.152H535.43V315.836L552.873 333.278L552.884 333.29L535.43 350.745V375.429H510.746L493.295 392.879L493.291 392.875ZM512.913 412.497L496.986 396.571L512.913 380.644H540.657V352.9L556.576 336.981L572.495 352.9V380.644H600.239L616.166 396.571L600.239 412.497H572.495V440.241L556.576 456.16L540.657 440.241V412.497H512.913ZM683.152 456.165L699.076 440.241V412.497H726.82L742.747 396.571L726.82 380.644H699.076V352.9L683.152 336.976L667.227 352.9V380.644H639.483L623.557 396.571L639.483 412.497H667.227V440.241L683.152 456.165ZM619.857 392.879L619.861 392.875L619.866 392.879L637.316 375.429H662V350.745L679.455 333.29L662 315.836V291.152H637.316L619.863 273.698L619.861 273.7L619.86 273.698L602.406 291.152H577.722V315.836L560.279 333.278L560.268 333.29L577.722 350.745V375.429H602.406L619.857 392.879ZM686.85 459.863L704.303 442.409V417.725H728.987L746.442 400.27L763.897 417.725H788.581V442.409L806.029 459.857L806.023 459.863L806.029 459.87L788.581 477.318V502.002H763.897L746.45 519.449L746.442 519.441L746.434 519.449L728.987 502.002H704.303V477.318L686.85 459.863ZM386.331 285.911L370.414 269.994L386.331 254.077H414.075V226.333L430 210.409L445.925 226.333V254.077H473.669L489.586 269.994L473.669 285.911H445.925V313.655L430 329.58L414.075 313.655V285.911H386.331ZM496.996 269.994L512.913 285.911H540.657V313.655L556.576 329.574L572.495 313.655V285.911H600.239L616.156 269.994L600.239 254.077H572.495V226.333L556.576 210.414L540.657 226.333V254.077H512.913L496.996 269.994ZM493.283 266.297L493.291 266.289L493.299 266.297L510.746 248.85H535.43V224.166L552.878 206.717L552.873 206.711L552.878 206.705L535.43 189.256V164.572H510.746L493.291 147.118L475.836 164.572H451.152V189.256L433.697 206.711L451.152 224.166V248.85H475.836L493.283 266.297ZM619.861 266.289L619.853 266.297L602.406 248.85H577.722V224.166L560.273 206.717L560.279 206.711L560.273 206.705L577.722 189.256V164.572H602.406L619.861 147.118L637.316 164.572H662V189.256L679.454 206.711L679.454 206.711L679.454 206.712L662 224.166V248.85H637.316L619.869 266.297L619.861 266.289ZM639.483 285.911L623.566 269.994L639.483 254.077H667.227V226.333L683.152 210.409L699.076 226.333V254.077H726.82L742.737 269.994L726.82 285.911H699.076V313.655L683.152 329.58L667.227 313.655V285.911H639.483ZM430 203.014L445.925 187.089V159.345H473.669L489.595 143.418L473.669 127.491H445.925V99.7475L430 83.8227L414.075 99.7475V127.491H386.331L370.404 143.418L386.331 159.345H414.075V187.089L430 203.014ZM366.704 139.727L366.709 139.723L366.713 139.727L384.164 122.277H408.848V97.5927L426.302 80.138L408.848 62.6832V37.9992H384.164L366.71 20.5459L366.709 20.5473L366.707 20.5459L349.254 37.9992H324.57V62.6832L307.128 80.1252L307.115 80.138L324.57 97.5927V122.277H349.254L366.704 139.727ZM493.291 139.723L493.286 139.727L475.836 122.277H451.152V97.5927L433.697 80.138L451.152 62.6832V37.9992H475.836L493.289 20.5459L493.291 20.5473L493.292 20.5459L510.746 37.9992H535.43V62.6832L552.884 80.138L535.43 97.5927V122.277H510.746L493.295 139.727L493.291 139.723ZM512.913 159.345L496.986 143.418L512.913 127.491H540.657V99.7475L556.576 83.8286L572.495 99.7475V127.491H600.239L616.166 143.418L600.239 159.345H572.495V187.089L556.576 203.008L540.657 187.089V159.345H512.913ZM686.849 206.711L686.85 206.711L686.849 206.712L704.303 224.166V248.85H728.987L746.434 266.297L746.442 266.289L746.45 266.297L763.897 248.85H788.581V224.166L806.029 206.717L806.023 206.711L806.029 206.705L788.581 189.256V164.572H763.897L746.442 147.118L728.987 164.572H704.303V189.256L686.849 206.711ZM683.152 203.013L699.076 187.089V159.345H726.82L742.747 143.418L726.82 127.491H699.076V99.7475L683.152 83.8232L667.227 99.7475V127.491H639.483L623.557 143.418L639.483 159.345H667.227V187.089L683.152 203.013ZM619.857 139.727L619.861 139.723L619.866 139.727L637.316 122.277H662V97.5927L679.455 80.138L662 62.6832V37.9992H637.316L619.863 20.5459L619.861 20.5473L619.86 20.5459L602.406 37.9992H577.722V62.6832L560.268 80.138L577.722 97.5927V122.277H602.406L619.857 139.727ZM766.064 539.064L750.147 523.147L766.064 507.23H793.808V479.486L809.727 463.567L825.645 479.486V507.23H853.389L869.306 523.147L853.389 539.064H825.645V566.808L809.727 582.726L793.808 566.808V539.064H766.064ZM873.004 519.449L873.011 519.441L873.019 519.449L890.466 502.002H915.15V477.318L932.605 459.863L915.15 442.409V417.725H890.466L873.011 400.27L855.557 417.725H830.873V442.409L813.424 459.857L813.431 459.863L813.424 459.87L830.873 477.318V502.002H855.557L873.004 519.449ZM746.442 392.875L746.438 392.879L728.987 375.429H704.303V350.745L686.849 333.29L704.303 315.836V291.152H728.987L746.441 273.698L746.442 273.7L746.444 273.698L763.897 291.152H788.581V315.836L806.023 333.278L806.036 333.29L788.581 350.745V375.429H763.897L746.447 392.879L746.442 392.875ZM766.064 412.497L750.138 396.571L766.064 380.644H793.808V352.9L809.727 336.981L825.645 352.9V380.644H853.389L869.316 396.571L853.389 412.497H825.645V440.241L809.727 456.16L793.808 440.241V412.497H766.064ZM873.007 392.879L873.011 392.875L873.016 392.879L890.466 375.429H915.15V350.745L932.605 333.29L915.15 315.836V291.152H890.466L873.013 273.698L873.011 273.7L873.01 273.698L855.557 291.152H830.873V315.836L813.431 333.278L813.418 333.29L830.873 350.745V375.429H855.557L873.007 392.879ZM766.064 285.911L750.147 269.994L766.064 254.077H793.808V226.333L809.727 210.415L825.645 226.333V254.077H853.389L869.306 269.994L853.389 285.911H825.645V313.655L809.727 329.574L793.808 313.655V285.911H766.064ZM873.004 266.297L873.011 266.289L873.019 266.297L890.466 248.85H915.15V224.166L932.605 206.711L915.15 189.256V164.572H890.466L873.011 147.118L855.557 164.572H830.873V189.256L813.424 206.705L813.431 206.711L813.424 206.717L830.873 224.166V248.85H855.557L873.004 266.297ZM746.442 139.723L746.438 139.727L728.987 122.277H704.303V97.5927L686.849 80.138L704.303 62.6832V37.9992H728.987L746.441 20.5459L746.442 20.5473L746.444 20.5459L763.897 37.9992H788.581V62.6832L806.023 80.1252L806.036 80.138L788.581 97.5927V122.277H763.897L746.447 139.727L746.442 139.723ZM766.064 159.345L750.138 143.418L766.064 127.491H793.808V99.7475L809.727 83.829L825.645 99.7475V127.491H853.389L869.316 143.418L853.389 159.345H825.645V187.089L809.727 203.007L793.808 187.089V159.345H766.064ZM873.007 139.727L873.011 139.723L873.016 139.727L890.466 122.277H915.15V97.5927L932.605 80.138L915.15 62.6832V37.9992H890.466L873.013 20.5459L873.011 20.5473L873.01 20.5459L855.557 37.9992H830.873V62.6832L813.431 80.1252L813.418 80.138L830.873 97.5927V122.277H855.557L873.007 139.727ZM133.181 32.759L117.264 16.842L133.181 0.925079H160.925V-26.8189L176.849 -42.7432L192.773 -26.8189V0.925079H220.517L236.434 16.842L220.517 32.759H192.773V60.503L176.849 76.4272L160.925 60.503V32.759H133.181ZM243.845 16.842L259.762 32.759H287.506V60.503L303.424 76.4214L319.343 60.503V32.759H347.087L363.003 16.842L347.087 0.925079H319.343V-26.8189L303.424 -42.7374L287.506 -26.8189V0.925079H259.762L243.845 16.842ZM240.132 13.1445L240.139 13.1367L240.147 13.1445L257.594 -4.30243H282.278V-28.9864L299.727 -46.4349L299.72 -46.4412L299.727 -46.4475L282.278 -63.8959V-88.5799H257.594L240.145 -106.029L240.139 -106.023V-106.035L222.685 -88.5799H198.001V-63.8959L180.547 -46.4412L198.001 -28.9864V-4.30243H222.685L240.132 13.1445ZM133.181 -93.8074L117.262 -109.726L133.181 -125.645H160.925V-153.389L176.855 -169.32L192.773 -153.402V-125.658H220.517L236.443 -109.733L220.517 -93.8074H192.773V-66.0634L176.849 -50.1392L160.925 -66.0634V-93.8074H133.181ZM307.122 -46.4475L307.128 -46.4412L307.122 -46.4348L324.57 -28.9864V-4.30243H349.254L366.701 13.1445L366.709 13.1367L366.717 13.1445L384.164 -4.30243H408.848V-28.9864L426.302 -46.4412L408.848 -63.8959V-88.5799H384.164L366.715 -106.029L366.709 -106.023V-106.035L349.254 -88.5799H324.57V-63.8959L307.122 -46.4475ZM243.843 -109.726L259.762 -93.8074H287.506V-66.0634L303.424 -50.145L319.343 -66.0634V-93.8074H347.087L363.012 -109.733L347.087 -125.658H319.343V-153.402L303.43 -169.314L287.506 -153.389V-125.645H259.762L243.843 -109.726ZM240.134 -113.424L240.139 -113.43L240.145 -113.424L257.594 -130.873H282.278V-155.557L299.733 -173.011L299.72 -173.024L282.278 -190.466V-215.15H257.594L240.139 -232.605L222.685 -215.15H198.001V-190.466L180.547 -173.011L198.001 -155.557V-130.873H222.685L240.134 -113.424ZM307.122 -173.018L307.128 -173.011L307.122 -173.005L324.57 -155.557V-130.873H349.254L366.703 -113.424L366.709 -113.43L366.715 -113.424L384.164 -130.873H408.848V-155.557L426.302 -173.011L408.848 -190.466V-215.15H384.164L366.709 -232.605L349.254 -215.15H324.57V-190.466L307.122 -173.018ZM386.331 32.759L370.414 16.842L386.331 0.925079H414.075V-26.8189L430 -42.7437L445.925 -26.8189V0.925079H473.669L489.586 16.842L473.669 32.759H445.925V60.503L430 76.4277L414.075 60.503V32.759H386.331ZM556.576 76.4219L540.657 60.503V32.759H512.913L496.996 16.842L512.913 0.925079H540.657V-26.8189L556.576 -42.7379L572.495 -26.8189V0.925079H600.239L616.156 16.842L600.239 32.759H572.495V60.503L556.576 76.4219ZM493.283 13.1445L493.291 13.1367L493.299 13.1445L510.746 -4.30243H535.43V-28.9864L552.878 -46.4353L552.873 -46.4412L552.878 -46.447L535.43 -63.8959V-88.5799H510.746L493.297 -106.029L493.291 -106.023V-106.035L475.836 -88.5799H451.152V-63.8959L433.697 -46.4412L451.152 -28.9864V-4.30243H475.836L493.283 13.1445ZM619.861 13.1367L619.853 13.1445L602.406 -4.30243H577.722V-28.9864L560.273 -46.4354L560.279 -46.4412L560.273 -46.447L577.722 -63.8959V-88.5799H602.406L619.861 -106.035V-106.023L619.867 -106.029L637.316 -88.5799H662V-63.8959L679.454 -46.4417L679.454 -46.4412L679.454 -46.4407L662 -28.9864V-4.30243H637.316L619.869 13.1445L619.861 13.1367ZM639.483 32.759L623.566 16.842L639.483 0.925079H667.227V-26.8189L683.152 -42.7432L699.076 -26.8189V0.925079H726.82L742.737 16.842L726.82 32.759H699.076V60.503L683.152 76.4272L667.227 60.503V32.759H639.483ZM370.412 -109.726L386.331 -93.8074H414.075V-66.0634L430 -50.1387L445.925 -66.0634V-93.8074H473.669L489.594 -109.733L473.669 -125.658H445.925V-153.402L430.006 -169.32L414.075 -153.389V-125.645H386.331L370.412 -109.726ZM493.291 -113.43L493.285 -113.424L475.836 -130.873H451.152V-155.557L433.697 -173.011L451.152 -190.466V-215.15H475.836L493.291 -232.605L510.746 -215.15H535.43V-190.466L552.884 -173.011L535.43 -155.557V-130.873H510.746L493.297 -113.424L493.291 -113.43ZM512.913 -93.8074L496.994 -109.726L512.913 -125.645H540.657V-153.389L556.582 -169.315L572.495 -153.402V-125.658H600.239L616.164 -109.733L600.239 -93.8074H572.495V-66.0634L556.576 -50.1445L540.657 -66.0634V-93.8074H512.913ZM686.849 -46.4417L686.85 -46.4412L686.849 -46.4407L704.303 -28.9864V-4.30243H728.987L746.434 13.1445L746.442 13.1367L746.45 13.1445L763.897 -4.30243H788.581V-28.9864L806.029 -46.4349L806.023 -46.4412L806.029 -46.4475L788.581 -63.8959V-88.5799H763.897L746.448 -106.029L746.442 -106.023V-106.035L728.987 -88.5799H704.303V-63.8959L686.849 -46.4417ZM623.564 -109.726L639.483 -93.8074H667.227V-66.0634L683.152 -50.1392L699.076 -66.0634V-93.8074H726.82L742.745 -109.733L726.82 -125.658H699.076V-153.402L683.158 -169.32L667.227 -153.389V-125.645H639.483L623.564 -109.726ZM619.855 -113.424L619.861 -113.43L619.867 -113.424L637.316 -130.873H662V-155.557L679.455 -173.011L662 -190.466V-215.15H637.316L619.861 -232.605L602.406 -215.15H577.722V-190.466L560.273 -173.017L560.279 -173.011L560.273 -173.006L577.722 -155.557V-130.873H602.406L619.855 -113.424ZM750.147 16.842L766.064 32.759H793.808V60.503L809.727 76.4214L825.645 60.503V32.759H853.389L869.306 16.842L853.389 0.925079H825.645V-26.8189L809.727 -42.7374L793.808 -26.8189V0.925079H766.064L750.147 16.842ZM873.011 13.1367L873.004 13.1445L855.557 -4.30243H830.873V-28.9864L813.424 -46.4349L813.431 -46.4412L813.424 -46.4475L830.873 -63.8959V-88.5799H855.557L873.011 -106.035V-106.023L873.017 -106.029L890.466 -88.5799H915.15V-63.8959L932.605 -46.4412L915.15 -28.9864V-4.30243H890.466L873.019 13.1445L873.011 13.1367ZM855.557 -130.873L873.006 -113.424L873.011 -113.43L873.017 -113.424L890.466 -130.873H915.15V-155.557L932.605 -173.011L915.15 -190.466V-215.15H890.466L873.011 -232.605L855.557 -215.15H830.873V-190.466L813.424 -173.018L813.431 -173.011L813.424 -173.005L830.873 -155.557V-130.873H855.557ZM29.1141 122.277V97.5927L46.5688 80.138L29.1141 62.6832V37.9992H4.42999L-13.0247 20.5445L-30.4794 37.9992H-55.1635V62.6832L-72.6182 80.138L-55.1635 97.5927V122.277H-30.4794L-13.0247 139.731L4.42999 122.277H29.1141ZM29.1141 375.429V350.745L46.5688 333.29L29.1141 315.836V291.152H4.42999L-13.0247 273.697L-30.4794 291.152H-55.1635V315.836L-72.6182 333.29L-55.1635 350.745V375.429H-30.4794L-13.0247 392.884L4.42999 375.429H29.1141ZM29.1141 730.467V755.151H4.42999L-13.0247 772.605L-30.4794 755.151H-55.1635V730.467L-72.6182 713.012L-55.1635 695.557V670.873H-30.4794L-13.0247 653.418L4.42999 670.873H29.1141V695.557L46.5688 713.012L29.1141 730.467Z" fill="url(#paint0_linear_9787_50974)"/>
</g>
</g>
</g>
</g>
<defs>
<linearGradient id="paint0_linear_9787_50974" x1="38.9995" y1="768.287" x2="610" y2="121.787" gradientUnits="userSpaceOnUse">
<stop stop-color="#CCD2EA"/>
<stop offset="1" stop-color="white" stop-opacity="0"/>
</linearGradient>
<clipPath id="clip0_9787_50974">
<rect width="1440" height="509" fill="white"/>
</clipPath>
<clipPath id="clip1_9787_50974">
<rect width="1020" height="1020" fill="white" transform="matrix(-1 0 0 1 940 -240)"/>
</clipPath>
</defs>
</svg>
